<mxfile host="65bd71144e">
    <diagram id="x3e4RKLPkhsfTVBswjm0" name="Page-1">
        <mxGraphModel dx="2290" dy="1298" grid="1" gridSize="10" guides="1" tooltips="1" connect="1" arrows="1" fold="1" page="1" pageScale="1" pageWidth="1920" pageHeight="1200" math="0" shadow="0">
            <root>
                <mxCell id="0"/>
                <mxCell id="1" style="locked=1;" parent="0"/>
                <mxCell id="2" value="Frames" style="" parent="0"/>
                <mxCell id="3" value="Regiment: Présélection" style="shape=umlFrame;whiteSpace=wrap;html=1;width=360;height=60;boundedLbl=1;verticalAlign=middle;align=center;spacingLeft=5;fontFamily=Times New Roman;fontSize=24;fontStyle=1" vertex="1" parent="2">
                    <mxGeometry x="40" y="40" width="1840" height="1120" as="geometry"/>
                </mxCell>
                <mxCell id="4" value="LigneDeVies" parent="0"/>
                <mxCell id="5" value="Lifeline2" style="shape=umlLifeline;perimeter=lifelinePerimeter;whiteSpace=wrap;html=1;container=1;collapsible=0;recursiveResize=0;outlineConnect=0;fontFamily=Times New Roman;fontSize=24;size=60;" vertex="1" parent="4">
                    <mxGeometry x="360" y="120" width="160" height="960" as="geometry"/>
                </mxCell>
                <mxCell id="6" value="" style="html=1;points=[];perimeter=orthogonalPerimeter;fillColor=#808080;fontFamily=Times New Roman;fontSize=24;" vertex="1" parent="5">
                    <mxGeometry x="75" y="130" width="10" height="120" as="geometry"/>
                </mxCell>
                <mxCell id="7" value="Controller" style="shape=umlLifeline;perimeter=lifelinePerimeter;whiteSpace=wrap;html=1;container=1;collapsible=0;recursiveResize=0;outlineConnect=0;fontFamily=Times New Roman;fontSize=24;size=60;" vertex="1" parent="4">
                    <mxGeometry x="120" y="120" width="160" height="960" as="geometry"/>
                </mxCell>
                <mxCell id="8" value="" style="html=1;points=[];perimeter=orthogonalPerimeter;fontFamily=Times New Roman;fontSize=24;" vertex="1" parent="7">
                    <mxGeometry x="75" y="130" width="10" height="120" as="geometry"/>
                </mxCell>
            </root>
        </mxGraphModel>
    </diagram>
</mxfile>